<svg width="45" height="42" viewBox="0 0 45 42" fill="none" xmlns="http://www.w3.org/2000/svg">
<g clip-path="url(#clip0_4_17)">
<path d="M45 21.1634C45 19.7037 44.8761 18.236 44.6117 16.8H23.4V25.0691H35.5469C35.0429 27.7361 32.9716 30.4208 30.6 31.92L31.0517 36.96L37.8 36.96C42.0556 33.2199 45 27.6966 45 21.1634Z" fill="#4285F4"/>
<path d="M22.8519 42C28.9339 42 34.063 40.1596 37.8 36.9829L30.6 31.92C28.5782 33.1876 25.9011 33.7756 22.8601 33.7756C16.977 33.7756 11.6898 30.1178 9.90001 25.2H2.70001V30.5531C6.5282 37.5709 14.3254 42 22.8519 42Z" fill="#34A853"/>
<path d="M9.89999 25.2C8.86841 22.6443 9.31841 19.3558 10.35 16.8L10.8 11.76L2.69997 11.34C-0.79295 17.1547 -0.873236 24.4253 2.61968 30.24L9.89999 25.2Z" fill="#FBBC04"/>
<path d="M23.286 8.22134C26.5702 8.17555 29.7444 9.28986 32.123 11.3353L38.7 5.40504C34.5354 1.87894 29.008 -0.0596583 23.286 0.00139975C14.5759 0.00139975 6.61066 4.31832 2.70001 11.34L10.352 16.8C12.1719 11.8772 17.2761 8.22134 23.286 8.22134Z" fill="#EA4335"/>
</g>
<defs>
<clipPath id="clip0_4_17">
<rect width="45" height="42" fill="white"/>
</clipPath>
</defs>
</svg>
