<?xml version="1.0" standalone="no"?>
<!DOCTYPE svg PUBLIC "-//W3C//DTD SVG 20010904//EN"
 "http://www.w3.org/TR/2001/REC-SVG-20010904/DTD/svg10.dtd">
<svg version="1.0" xmlns="http://www.w3.org/2000/svg"
 width="1280.000000pt" height="1280.000000pt" viewBox="0 0 1280.000000 1280.000000"
 preserveAspectRatio="xMidYMid meet">

<g transform="translate(0.000000,1280.000000) scale(0.100000,-0.100000)"
fill="#000000" stroke="none">
<path d="M1825 7323 c-47 -24 -86 -64 -106 -108 -18 -39 -19 -125 -19 -2429
l0 -2390 21 -43 c12 -24 34 -54 50 -65 28 -21 29 -24 29 -112 0 -98 16 -143
60 -166 12 -6 654 -126 1428 -266 l1407 -255 1130 96 c622 52 1152 98 1178
101 l49 6 -7 49 -7 49 39 0 c21 0 48 3 60 6 22 6 23 3 23 -45 0 -34 4 -51 13
-51 57 1 1030 89 1034 94 4 3 -1 32 -10 63 -8 32 -15 58 -14 59 1 1 32 4 68 6
l66 5 6 -59 c3 -33 7 -62 10 -64 2 -3 699 54 1548 126 1167 98 1552 134 1575
146 48 24 64 61 64 147 l0 75 -32 6 c-18 3 -312 44 -653 91 -341 47 -1024 142
-1518 210 -522 73 -930 125 -976 125 l-78 0 -7 46 c-3 26 -6 237 -6 469 l0
422 -97 46 c-54 25 -144 61 -199 80 -112 39 -351 101 -428 111 -102 14 -255
60 -351 105 -97 46 -235 141 -284 195 -32 35 -41 33 -41 -8 0 -33 -1 -34 -47
-40 -27 -3 -131 -8 -233 -11 -102 -4 -197 -9 -212 -11 -28 -6 -40 -30 -15 -31
25 -2 130 -34 178 -55 46 -19 61 -20 188 -14 l139 7 7 -90 c7 -93 4 -111 -21
-111 -12 0 -11 -6 5 -27 18 -25 21 -55 31 -311 6 -155 13 -345 17 -422 l6
-139 -34 -5 c-52 -8 -4576 -326 -4640 -326 -66 0 -112 26 -140 80 -18 33 -19
110 -19 2125 0 2017 1 2091 19 2131 10 23 34 52 52 65 l34 24 433 3 432 3 0
149 0 150 -587 0 c-516 -1 -592 -3 -618 -17z m5561 -3761 c-12 -11 -16 6 -9
39 l8 34 3 -33 c2 -19 1 -36 -2 -40z m5 -524 c63 -48 68 -54 47 -60 -13 -3
-44 -6 -69 -7 -44 -1 -47 0 -53 30 -7 38 -8 89 -1 89 3 0 37 -24 76 -52z"/>
<path d="M7743 6910 c-40 -17 -56 -55 -50 -115 5 -53 5 -56 -30 -84 l-37 -30
27 -10 c37 -14 39 -9 -32 -97 -39 -49 -46 -79 -45 -209 0 -124 2 -136 43 -263
113 -355 204 -502 353 -572 94 -44 154 -47 348 -15 564 90 817 86 1320 -20
233 -50 333 -26 469 113 87 89 131 157 177 282 42 109 64 235 64 357 0 402
-227 615 -655 615 -312 -1 -565 -95 -828 -309 -95 -77 -154 -108 -235 -123
-111 -20 -280 16 -395 83 -47 28 -101 84 -249 261 -46 55 -97 108 -113 117
-37 22 -103 32 -132 19z"/>
<path d="M8241 1711 c-26 -26 -55 -126 -53 -185 1 -39 7 -56 27 -75 23 -23 33
-26 106 -26 72 0 83 3 99 23 18 21 18 26 4 70 -9 26 -20 68 -24 94 -5 25 -16
57 -24 71 -31 47 -101 62 -135 28z"/>
<path d="M7110 1553 c-18 -20 -48 -71 -67 -112 -19 -42 -44 -93 -55 -114 -14
-26 -17 -42 -10 -49 5 -5 49 -11 97 -11 79 -2 88 0 103 20 66 87 82 113 82
134 0 13 -16 56 -36 96 -43 87 -64 94 -114 36z"/>
</g>
</svg>
